<svg id="Layer_1" data-name="Layer 1" xmlns="http://www.w3.org/2000/svg" viewBox="0 0 390.88 140.49"><defs><style>.cls-1,.cls-2{fill:none;stroke:#fff;stroke-miterlimit:10;}.cls-1{stroke-width:3px;}.cls-3{fill:#fff;}</style></defs><title>phrase-hunter</title><polyline class="cls-1" points="168.54 71.72 195.95 119.18 222.18 73.74"/><polyline class="cls-1" points="244.48 35 263.89 1.5 128 1.5 147.48 35"/><polyline class="cls-2" points="253.48 39 268.98 12.18 121.98 12.18 136.48 37"/><path class="cls-2" d="M244.13,36.89" transform="translate(-0.02 -0.68)"/><polyline class="cls-2" points="157.23 73.23 195.48 139.49 233.3 73.99"/><path class="cls-3" d="M16.29,38.2a15.44,15.44,0,0,1,6.37,1.33,16.49,16.49,0,0,1,5.18,3.6,17.25,17.25,0,0,1,3.5,5.33,17.38,17.38,0,0,1,0,13.14A17.16,17.16,0,0,1,27.84,67a16.17,16.17,0,0,1-5.18,3.6,15.45,15.45,0,0,1-6.37,1.34h-4.9V82.84H0V55.05a17.15,17.15,0,0,1,1.26-6.59,16.37,16.37,0,0,1,3.49-5.33A17.09,17.09,0,0,1,10,39.53,15.2,15.2,0,0,1,16.29,38.2Zm0,1a14.65,14.65,0,0,0-5.94,1.22,15.31,15.31,0,0,0-4.86,3.39,16.33,16.33,0,0,0-3.31,5A15.58,15.58,0,0,0,1,55.05V81.9h9.51v-11h5.83a14.4,14.4,0,0,0,6-1.26,15.55,15.55,0,0,0,4.9-3.42,16.33,16.33,0,0,0,3.31-5,15.42,15.42,0,0,0,1.23-6.12,15.58,15.58,0,0,0-1.23-6.19,16.33,16.33,0,0,0-3.31-5,15.15,15.15,0,0,0-4.9-3.39A14.86,14.86,0,0,0,16.29,39.21Zm0,1a13.7,13.7,0,0,1,5.58,1.15,14.6,14.6,0,0,1,4.61,3.17,15.09,15.09,0,0,1,3.13,4.71,15.18,15.18,0,0,1,0,11.59,15,15,0,0,1-7.74,7.92A13.26,13.26,0,0,1,16.29,70H9.52v11H2V55.05a14.91,14.91,0,0,1,1.12-5.8,14.73,14.73,0,0,1,3.06-4.71,14.1,14.1,0,0,1,4.57-3.17A13.7,13.7,0,0,1,16.29,40.22Zm0,21.81a6.56,6.56,0,0,0,4.86-2,7.23,7.23,0,0,0,0-9.94,6.57,6.57,0,0,0-4.86-2,6.47,6.47,0,0,0-4.83,2,6.9,6.9,0,0,0-1.94,5v7Zm-5.83-1v-6a5.92,5.92,0,0,1,1.65-4.25,5.57,5.57,0,0,1,4.18-1.73,5.53,5.53,0,0,1,4.17,1.73,6.27,6.27,0,0,1,0,8.5A5.52,5.52,0,0,1,16.29,61Zm5.83-.93a4.61,4.61,0,0,0,3.49-1.48,5.24,5.24,0,0,0,0-7.13A4.64,4.64,0,0,0,16.29,50a4.62,4.62,0,0,0-3.49,1.47,5,5,0,0,0-1.41,3.57v5Z" transform="translate(-0.02 -0.68)"/><path class="cls-3" d="M52,38.06a15.44,15.44,0,0,1,6.37,1.33A16.65,16.65,0,0,1,63.56,43a17.4,17.4,0,0,1,3.49,5.33,16.75,16.75,0,0,1,1.29,6.58V71.75H56.9V54.9a4.84,4.84,0,0,0-1.41-3.52,4.95,4.95,0,0,0-7,0A4.84,4.84,0,0,0,47.1,54.9V71.75H35.73V27.18H47.1V38.85a10.56,10.56,0,0,1,2.38-.65A18.69,18.69,0,0,1,52,38.06Zm0,1a14.33,14.33,0,0,0-3,.33,13.3,13.3,0,0,0-2.84.9V28.19H36.66V70.74h9.51V54.9a5.9,5.9,0,0,1,1.65-4.24,5.91,5.91,0,0,1,8.36,0,5.9,5.9,0,0,1,1.65,4.24V70.74h9.58V54.9a15.42,15.42,0,0,0-1.23-6.12,16.33,16.33,0,0,0-3.31-5A15.62,15.62,0,0,0,58,40.32,14.48,14.48,0,0,0,52,39.06Zm0,1a13.86,13.86,0,0,1,5.58,1.15,14.76,14.76,0,0,1,4.61,3.17,15.25,15.25,0,0,1,3.13,4.72,14.56,14.56,0,0,1,1.15,5.79V69.81H58.84V54.9a6.8,6.8,0,0,0-2-5,6.53,6.53,0,0,0-4.86-2,6.39,6.39,0,0,0-4.82,2,6.86,6.86,0,0,0-2,5V69.81H37.67V29.13h7.56V41.8a16,16,0,0,1,3.21-1.26A13.31,13.31,0,0,1,52,40.07Z" transform="translate(-0.02 -0.68)"/><path class="cls-3" d="M92,39.14V50.58h-5.4A4.23,4.23,0,0,0,83.36,52,4.76,4.76,0,0,0,82,55.41V71.75H71.22V55.41a16.32,16.32,0,0,1,1.23-6.34,17,17,0,0,1,3.31-5.18,15.14,15.14,0,0,1,4.86-3.49,14.2,14.2,0,0,1,5.94-1.26Zm-5.4.93A13,13,0,0,0,81,41.3a14.49,14.49,0,0,0-4.57,3.31,16.08,16.08,0,0,0-3.1,4.86,15.3,15.3,0,0,0-1.15,5.94V70.82h9V55.41a5.78,5.78,0,0,1,1.55-4.11,5.05,5.05,0,0,1,3.85-1.65H91.1V40.07Zm3.67,1v7.63H86.56a5.93,5.93,0,0,0-4.5,1.95,6.67,6.67,0,0,0-1.84,4.75V69.88H73V55.41a14.52,14.52,0,0,1,1.08-5.58A14.78,14.78,0,0,1,77,45.26,13.43,13.43,0,0,1,81.3,42.2a12.45,12.45,0,0,1,5.26-1.12Z" transform="translate(-0.02 -0.68)"/><path class="cls-3" d="M110.75,39.14a16.2,16.2,0,0,1,6.37,1.26,15.87,15.87,0,0,1,5.19,3.49,16.65,16.65,0,0,1,3.45,5.18A16,16,0,0,1,127,55.41V71.75H110.75a16.2,16.2,0,0,1-6.37-1.26A15.73,15.73,0,0,1,99.2,67a17.09,17.09,0,0,1-3.5-5.22,15.87,15.87,0,0,1-1.29-6.37,15.66,15.66,0,0,1,1.29-6.34,17.15,17.15,0,0,1,3.5-5.18,15.73,15.73,0,0,1,5.18-3.49A16.2,16.2,0,0,1,110.75,39.14Zm0,.93a14.49,14.49,0,0,0-5.94,1.23A15.75,15.75,0,0,0,100,44.61a15.92,15.92,0,0,0-3.31,4.86,14.49,14.49,0,0,0-1.22,5.94,14.69,14.69,0,0,0,1.22,6,15.66,15.66,0,0,0,8.17,8.21,14.49,14.49,0,0,0,5.94,1.23h15.34V55.41a15,15,0,0,0-1.19-5.94,15.33,15.33,0,0,0-3.28-4.86,15.65,15.65,0,0,0-4.89-3.31A14.75,14.75,0,0,0,110.75,40.07Zm0,1A14.42,14.42,0,0,1,121,45.26,14.44,14.44,0,0,1,124,49.83a14.18,14.18,0,0,1,1.11,5.58V69.88h-14.4a13.7,13.7,0,0,1-5.58-1.15,14.67,14.67,0,0,1-7.67-7.67,13.89,13.89,0,0,1-1.15-5.65,13.7,13.7,0,0,1,1.15-5.58,14.72,14.72,0,0,1,3.1-4.57,14.22,14.22,0,0,1,4.57-3.06A14,14,0,0,1,110.75,41.08Zm6.77,21.24V55.41a6.39,6.39,0,0,0-2-4.75,7,7,0,0,0-9.68,0,6.44,6.44,0,0,0-2,4.75,6.76,6.76,0,0,0,2,4.89,6.47,6.47,0,0,0,4.89,2Zm-6.77-1a5.77,5.77,0,0,1-5.9-5.9,5.53,5.53,0,0,1,1.69-4.11,5.79,5.79,0,0,1,4.21-1.65,5.71,5.71,0,0,1,4.14,1.65,5.53,5.53,0,0,1,1.69,4.11v5.9Zm4.83-.93v-5a4.81,4.81,0,0,0-4.83-4.83A4.86,4.86,0,0,0,107.22,52a4.58,4.58,0,0,0-1.44,3.42,4.92,4.92,0,0,0,5,5Z" transform="translate(-0.02 -0.68)"/><path class="cls-3" d="M160.79,39.14V50.58h-4.17a11.08,11.08,0,0,1,5.9,14.48,10.86,10.86,0,0,1-5.83,5.83,11,11,0,0,1-4.32.86h-19V60.38h4.32a10.83,10.83,0,0,1-5-4,10.66,10.66,0,0,1-1.91-6.27,11,11,0,0,1,.86-4.32,10.93,10.93,0,0,1,5.8-5.83,10.49,10.49,0,0,1,4.28-.86Zm-19.08.93a9.69,9.69,0,0,0-3.89.79A10.32,10.32,0,0,0,134.66,43a9.74,9.74,0,0,0-2.13,3.21,10.65,10.65,0,0,0,0,7.85,9.8,9.8,0,0,0,5.29,5.32,9.85,9.85,0,0,0,3.89.76h10.66a.58.58,0,0,1,0,1.15h-18v9.51h18a9.75,9.75,0,0,0,3.92-.8,10,10,0,0,0,3.21-2.16,10.26,10.26,0,0,0,2.16-3.2,10,10,0,0,0-2.16-11,10.74,10.74,0,0,0-3.21-2.12,9.74,9.74,0,0,0-3.92-.79H141.71c-.33,0-.5-.19-.5-.58a.44.44,0,0,1,.5-.5h18.15V40.07Zm17.21,1v7.63H141.71a1.44,1.44,0,0,0-1,.4,1.36,1.36,0,0,0-.43,1,1.55,1.55,0,0,0,.43,1.05,1.34,1.34,0,0,0,1,.46h10.66a8.81,8.81,0,0,1,3.53.72,9.65,9.65,0,0,1,2.91,1.95,8.92,8.92,0,0,1,2,2.88,8.74,8.74,0,0,1,.72,3.53,9,9,0,0,1-.72,3.56,8.88,8.88,0,0,1-2,2.92,9.81,9.81,0,0,1-2.91,1.94,8.81,8.81,0,0,1-3.53.72H135.3V62.32h17.07a1.39,1.39,0,0,0,1.08-.47,1.56,1.56,0,0,0,.43-1.11,1.49,1.49,0,0,0-.43-1.05,1.42,1.42,0,0,0-1.08-.47H141.71a9.1,9.1,0,0,1-3.53-.68,8.84,8.84,0,0,1-2.88-1.91,8.61,8.61,0,0,1-1.9-2.88,9.74,9.74,0,0,1,0-7.2,8.81,8.81,0,0,1,1.9-2.88,9,9,0,0,1,2.88-1.91,9.28,9.28,0,0,1,3.53-.68Z" transform="translate(-0.02 -0.68)"/><path class="cls-3" d="M191,55.62l7.56,7.56-4.11,4a18.2,18.2,0,0,1-5.29,3.46A15.22,15.22,0,0,1,183,71.9a15.9,15.9,0,0,1-6.19-1.23,15.44,15.44,0,0,1-5.26-3.6,16.18,16.18,0,0,1-3.6-5.4,15.86,15.86,0,0,1,0-12.2,16.47,16.47,0,0,1,3.6-5.37,15.34,15.34,0,0,1,5.33-3.63A16.3,16.3,0,0,1,183,39.28a15.66,15.66,0,0,1,6.05,1.26A16.88,16.88,0,0,1,194.41,44l4.11,4Zm-3.82,4a4.79,4.79,0,0,1-3.09,1.65l13.1-13.25-3.38-3.31a15.32,15.32,0,0,0-5.08-3.38,14.8,14.8,0,0,0-16.45,3.45v-.07a14.78,14.78,0,0,0-3.35,5,15.74,15.74,0,0,0-1.12,5.83,15.3,15.3,0,0,0,1.12,5.73,15.49,15.49,0,0,0,3.35,5.07v-.07a14,14,0,0,0,5,3.46A15.15,15.15,0,0,0,183,71a14.67,14.67,0,0,0,5.76-1.19,15.51,15.51,0,0,0,5-3.35l3.38-3.31-6.7-6.77Zm3.31-1.95,5.33,5.4-2.66,2.59a14.27,14.27,0,0,1-4.68,3.17,14.22,14.22,0,0,1-10.87,0,14.27,14.27,0,0,1-4.68-3.17A13.8,13.8,0,0,1,169.75,61a14.53,14.53,0,0,1-1-5.37,14.84,14.84,0,0,1,1-5.4,14.84,14.84,0,0,1,7.89-8,14.22,14.22,0,0,1,5.4-1.08,14,14,0,0,1,10.08,4.32l2.66,2.59L181.67,62.32h1.44a6.66,6.66,0,0,0,2.45-.47,6.36,6.36,0,0,0,2.23-1.47Zm-12.24-7a6.55,6.55,0,0,0-1.94,4.82v.65a1.91,1.91,0,0,0,.14.65l7.92-7.92a6,6,0,0,0-.72-.11c-.24,0-.48,0-.72,0A6.38,6.38,0,0,0,178.21,50.73Zm.65.72a5.93,5.93,0,0,1,3.1-1.66l-4.68,4.83a5.65,5.65,0,0,1,1.65-3.17Z" transform="translate(-0.02 -0.68)"/><path class="cls-3" d="M219.61,38.06A15.49,15.49,0,0,1,226,39.39a16.49,16.49,0,0,1,5.18,3.6,17.22,17.22,0,0,1,3.49,5.33A16.58,16.58,0,0,1,236,54.9V71.75H224.51V54.9a4.87,4.87,0,0,0-1.4-3.52,5,5,0,0,0-7,0,4.87,4.87,0,0,0-1.4,3.52V71.75H203.34V27.18h11.38V38.85a10.35,10.35,0,0,1,2.37-.65A18.69,18.69,0,0,1,219.61,38.06Zm0,1a14.24,14.24,0,0,0-3,.33,13.39,13.39,0,0,0-2.85.9V28.19h-9.5V70.74h9.5V54.9a5.86,5.86,0,0,1,1.66-4.24,5.9,5.9,0,0,1,8.35,0,5.9,5.9,0,0,1,1.66,4.24V70.74H235V54.9a15.59,15.59,0,0,0-1.22-6.12,16.52,16.52,0,0,0-3.31-5,15.78,15.78,0,0,0-4.9-3.42A14.42,14.42,0,0,0,219.61,39.06Zm0,1a13.86,13.86,0,0,1,5.58,1.15,14.65,14.65,0,0,1,4.61,3.17,15.08,15.08,0,0,1,3.13,4.72,14.57,14.57,0,0,1,1.16,5.79V69.81h-7.64V54.9a6.8,6.8,0,0,0-2-5,6.53,6.53,0,0,0-4.86-2,6.41,6.41,0,0,0-4.82,2,6.85,6.85,0,0,0-1.94,5V69.81h-7.56V29.13h7.56V41.8a15.67,15.67,0,0,1,3.2-1.26A13.36,13.36,0,0,1,219.61,40.07Z" transform="translate(-0.02 -0.68)"/><path class="cls-3" d="M271.6,39.14V55.41a15.71,15.71,0,0,1-1.3,6.37A17.07,17.07,0,0,1,266.81,67a15.83,15.83,0,0,1-5.18,3.49,16.28,16.28,0,0,1-6.38,1.26,16,16,0,0,1-6.33-1.26A16.27,16.27,0,0,1,239,55.41V39.14h11.38V55.41a4.89,4.89,0,0,0,1.4,3.53,5,5,0,0,0,7,0,4.89,4.89,0,0,0,1.4-3.53V39.14Zm-10.51.93V55.41a5.8,5.8,0,0,1-1.66,4.21,6,6,0,0,1-8.35,0,5.76,5.76,0,0,1-1.66-4.21V40.07h-9.5V55.41a14.69,14.69,0,0,0,1.22,6,15.75,15.75,0,0,0,3.31,4.9,16,16,0,0,0,4.86,3.31,14.49,14.49,0,0,0,5.94,1.23,14.71,14.71,0,0,0,6-1.23,15.55,15.55,0,0,0,8.21-8.21,14.86,14.86,0,0,0,1.22-6V40.07Zm8.64,1V55.41a13.9,13.9,0,0,1-1.16,5.65,14.3,14.3,0,0,1-3.13,4.57,15.14,15.14,0,0,1-4.61,3.1,14.11,14.11,0,0,1-11.16,0,14.83,14.83,0,0,1-4.57-3.1,14.31,14.31,0,0,1-4.17-10.22V41.08h7.56V55.41a6.75,6.75,0,0,0,1.94,4.89,6.41,6.41,0,0,0,4.82,2,6.53,6.53,0,0,0,4.86-2,6.71,6.71,0,0,0,2-4.89V41.08Z" transform="translate(-0.02 -0.68)"/><path class="cls-3" d="M275.41,55.48a16,16,0,0,1,1.26-6.34,16.4,16.4,0,0,1,3.5-5.18,16.15,16.15,0,0,1,5.18-3.49,16,16,0,0,1,6.34-1.26,16.27,16.27,0,0,1,6.37,1.26A15.73,15.73,0,0,1,303.24,44a17.06,17.06,0,0,1,3.49,5.18,15.5,15.5,0,0,1,1.3,6.34V71.82H296.58V55.48a4.9,4.9,0,0,0-9.79,0V71.82H275.41Zm.94,15.41h9.5V55.48a5.54,5.54,0,0,1,1.66-4.1,5.84,5.84,0,0,1,10,4.1V70.89h9.57V55.48a14.49,14.49,0,0,0-1.22-5.94,15.66,15.66,0,0,0-8.21-8.17,14.7,14.7,0,0,0-6-1.23,14.43,14.43,0,0,0-5.94,1.23,15.84,15.84,0,0,0-8.18,8.17,14.65,14.65,0,0,0-1.22,5.94Zm1-15.41a14.18,14.18,0,0,1,1.11-5.58,14.44,14.44,0,0,1,3.06-4.57,14.76,14.76,0,0,1,4.58-3.1,13.7,13.7,0,0,1,5.58-1.15,13.93,13.93,0,0,1,5.65,1.15A14.67,14.67,0,0,1,305,49.9a13.86,13.86,0,0,1,1.15,5.58V70h-7.63V55.48a6.62,6.62,0,0,0-.54-2.63,6.62,6.62,0,0,0-3.6-3.6,6.82,6.82,0,0,0-2.7-.54,6.49,6.49,0,0,0-4.83,2,6.61,6.61,0,0,0-1.94,4.79V70h-7.56Z" transform="translate(-0.02 -0.68)"/><path class="cls-3" d="M332.51,60V71.75h-5.33a13.52,13.52,0,0,1-5.94-1.33,15.94,15.94,0,0,1-4.86-3.6,17,17,0,0,1-3.31-5.36,17.62,17.62,0,0,1-1.23-6.56V27.18h10.73V43.6h9.94V55.34h-9.94a5.59,5.59,0,0,0,1.48,3.34A4.13,4.13,0,0,0,327.18,60Zm-5.33,1a5,5,0,0,1-3.89-1.8,6.34,6.34,0,0,1-1.58-4.32v-.5h9.93V44.61h-9.93V28.19h-8.93V54.9A16.28,16.28,0,0,0,313.93,61a16.73,16.73,0,0,0,3.1,5,14.36,14.36,0,0,0,4.57,3.42,12.73,12.73,0,0,0,5.58,1.26h4.46V61Zm3.6.94v7.85h-3.6a12,12,0,0,1-5.26-1.19,14,14,0,0,1-4.28-3.2,15.63,15.63,0,0,1-2.92-4.72,15.46,15.46,0,0,1-1.08-5.8V29.13h7.13V45.54h10v7.85h-10V54.9a7.23,7.23,0,0,0,1.84,5A5.87,5.87,0,0,0,327.18,62Z" transform="translate(-0.02 -0.68)"/><path class="cls-3" d="M359.44,55.62,367,63.18l-4.11,4a18.2,18.2,0,0,1-5.29,3.46,15.22,15.22,0,0,1-6.08,1.3,16,16,0,0,1-6.2-1.23,15.4,15.4,0,0,1-5.25-3.6,16,16,0,0,1-3.6-17.6,16.16,16.16,0,0,1,3.6-5.37,15.34,15.34,0,0,1,5.33-3.63,16.23,16.23,0,0,1,6.12-1.19,15.58,15.58,0,0,1,6,1.26A16.81,16.81,0,0,1,362.89,44L367,48Zm-3.82,4a4.82,4.82,0,0,1-3.1,1.65l13.11-13.25-3.39-3.31a15.28,15.28,0,0,0-5.07-3.38,14.8,14.8,0,0,0-16.45,3.45v-.07a14.78,14.78,0,0,0-3.35,5,15.54,15.54,0,0,0-1.12,5.83,15.11,15.11,0,0,0,1.12,5.73,15.49,15.49,0,0,0,3.35,5.07v-.07a14.06,14.06,0,0,0,5,3.46A15.24,15.24,0,0,0,351.52,71a14.75,14.75,0,0,0,5.76-1.19,15.47,15.47,0,0,0,5-3.35l3.39-3.31-6.7-6.77Zm3.31-1.95,5.33,5.4L361.6,65.7a14.48,14.48,0,0,1-4.68,3.17,13.92,13.92,0,0,1-5.4,1.08A14.13,14.13,0,0,1,346,68.87a14.48,14.48,0,0,1-4.68-3.17A13.92,13.92,0,0,1,338.23,61a14.53,14.53,0,0,1-1-5.37,14.84,14.84,0,0,1,1-5.4,14.75,14.75,0,0,1,7.89-8,14.22,14.22,0,0,1,5.4-1.08,14,14,0,0,1,10.08,4.32l2.66,2.59L350.15,62.32h1.44a6.7,6.7,0,0,0,2.45-.47,6.36,6.36,0,0,0,2.23-1.47Zm-12.24-7a6.55,6.55,0,0,0-1.94,4.82v.65a1.91,1.91,0,0,0,.14.65l7.92-7.92a6,6,0,0,0-.72-.11c-.24,0-.48,0-.72,0A6.38,6.38,0,0,0,346.69,50.73Zm.65.72a5.89,5.89,0,0,1,3.1-1.66l-4.68,4.83a5.65,5.65,0,0,1,1.65-3.17Z" transform="translate(-0.02 -0.68)"/><path class="cls-3" d="M390.9,39.14V50.58h-5.4A4.23,4.23,0,0,0,382.3,52,4.76,4.76,0,0,0,381,55.41V71.75h-10.8V55.41a16.32,16.32,0,0,1,1.23-6.34,17,17,0,0,1,3.31-5.18,15.14,15.14,0,0,1,4.86-3.49,14.2,14.2,0,0,1,5.94-1.26Zm-5.4.93a13,13,0,0,0-5.58,1.23,14.49,14.49,0,0,0-4.57,3.31,16.08,16.08,0,0,0-3.1,4.86,15.3,15.3,0,0,0-1.15,5.94V70.82h9V55.41a5.82,5.82,0,0,1,1.55-4.11,5.05,5.05,0,0,1,3.85-1.65H390V40.07Zm3.67,1v7.63H385.5a5.93,5.93,0,0,0-4.5,1.95,6.67,6.67,0,0,0-1.84,4.75V69.88H372V55.41A14.52,14.52,0,0,1,373,49.83,14.78,14.78,0,0,1,376,45.26a13.43,13.43,0,0,1,4.28-3.06,12.48,12.48,0,0,1,5.26-1.12Z" transform="translate(-0.02 -0.68)"/></svg>